# xmcd CD database file
#
# Track frame offsets:
#	182
#	18292
#	49340
#	79935
#	118572
#	156910
#	175270
#	204917
#	233570
#
# Disc length: 3584 seconds
#
# Revision: 0
# Processed by: cddbd v1.4PL0 Copyright (c) Steve Scherf et al.
# Submitted via: CDex 1.40Beta9
#
DISCID=690dfe09
DTITLE=Lefty Dizz - Ain't It Nice To Be Loved
DYEAR=1995
DGENRE=Blues
TTITLE0=Cloudy Weather
TTITLE1=That's Alright In The Dark
TTITLE2=I Feel Like Jumping
TTITLE3=Bad Avenue
TTITLE4=Ain't It Nice To Be Loved
TTITLE5=Look On Yonders Wall
TTITLE6=Too Late
TTITLE7=Sadie
TTITLE8=Where The Hell Were You When I Got Home?!
EXTD=YEAR: 1995 ID3G: 0
EXTT0=
EXTT1=
EXTT2=
EXTT3=
EXTT4=
EXTT5=
EXTT6=
EXTT7=
EXTT8=
PLAYORDER=
